<svg width="65" height="57" viewBox="0 0 65 57" fill="none" xmlns="http://www.w3.org/2000/svg">
<g clip-path="url(#clip0_2_910)">
<path d="M36.4955 31.4571C34.8854 35.8631 29.9955 38.1256 25.5827 36.5379C21.1897 34.9303 18.9038 30.048 20.5139 25.642C22.1041 21.2559 26.994 18.9735 31.4068 20.5811C35.8197 22.1688 38.0857 27.0511 36.4955 31.4571Z" fill="white"/>
<path d="M30.6314 4.3067C17.2339 3.13574 5.42653 13.0194 4.25375 26.3962C3.08097 39.7729 12.9801 51.5619 26.3776 52.7329C39.7752 53.9038 51.5825 44.0201 52.7553 30.6434C53.9281 17.2667 44.0091 5.47767 30.6314 4.3067ZM48.0443 35.6646C44.1284 46.4216 32.162 51.9787 21.3883 48.0689C10.5947 44.1591 5.02898 32.2113 8.94488 21.4543C12.8608 10.6974 24.8271 5.12042 35.6207 9.03024C46.3944 12.9599 51.9602 24.9077 48.0443 35.6646Z" fill="white"/>
<path d="M38.2447 1.84575C29.6376 -1.09158 22.8196 -0.337399 16.4587 2.77855C9.91897 5.99373 4.41285 11.4516 1.72936 18.8346C-0.954123 26.1978 -0.397548 33.9777 2.68349 40.5668C5.76453 47.156 11.37 52.5742 18.7645 55.2733C33.5336 60.632 49.8731 53.0306 55.2599 38.2845L65 11.5707L38.2447 1.84575ZM48.0443 35.6647C44.1284 46.4217 32.1621 51.9788 21.3884 48.0689C10.5948 44.1591 5.02906 32.2113 8.94496 21.4544C12.8609 10.6974 24.8272 5.12047 35.6208 9.03029C46.3945 12.96 51.9602 24.9077 48.0443 35.6647Z" fill="white"/>
<path d="M36.4955 31.4571C34.8854 35.8631 29.9955 38.1256 25.5827 36.5379C21.1897 34.9303 18.9038 30.048 20.5139 25.642C22.1041 21.2559 26.994 18.9735 31.4068 20.5811C35.8197 22.1688 38.0857 27.0511 36.4955 31.4571Z" fill="white"/>
</g>
<defs>
<clipPath id="clip0_2_910">
<rect width="65" height="57" fill="white"/>
</clipPath>
</defs>
</svg>
